<svg id="Group_1064" data-name="Group 1064" xmlns="http://www.w3.org/2000/svg" width="71.067" height="66.97" viewBox="0 0 71.067 66.97">
  <path id="Path_976" data-name="Path 976" d="M69.591,66l-25.1-46.149a10.411,10.411,0,0,0-17.9,0L1.478,66a10.405,10.405,0,0,0,8.95,15.725h50.21A10.407,10.407,0,0,0,69.591,66ZM35.534,73.4A4.164,4.164,0,1,1,39.7,69.237,4.17,4.17,0,0,1,35.534,73.4ZM39.7,56.744a4.164,4.164,0,1,1-8.328,0V35.924a4.164,4.164,0,0,1,8.328,0Z" transform="translate(0 -14.759)" fill="#fff"/>
</svg>
