<svg id="cancel" xmlns="http://www.w3.org/2000/svg" width="30" height="30" viewBox="0 0 30 30">
  <g id="Group_45" data-name="Group 45">
    <path id="Path_69" data-name="Path 69" d="M15,30A15,15,0,1,0,0,15,15.017,15.017,0,0,0,15,30ZM15,1.5A13.5,13.5,0,1,1,1.5,15,13.516,13.516,0,0,1,15,1.5Z" />
    <path id="Path_70" data-name="Path 70" d="M11.03,18.97a.753.753,0,0,0,1.064,0l2.912-2.912,2.912,2.912a.751.751,0,0,0,1.064-1.058L16.058,15l2.912-2.912a.748.748,0,0,0-1.058-1.058L15,13.942,12.088,11.03a.748.748,0,0,0-1.058,1.058L13.942,15,11.03,17.912A.746.746,0,0,0,11.03,18.97Z"/>
  </g>
</svg>
